<svg xmlns="http://www.w3.org/2000/svg" xmlns:xlink="http://www.w3.org/1999/xlink" version="1.1" width="1000" height="1000" viewBox="0 0 1000 1000" xml:space="preserve">
<desc>Created with Fabric.js 3.5.0</desc>
<defs>
</defs>
<rect x="0" y="-10" width="100%" height="100%" fill="transparent"/>
<g transform="matrix(5.0541 -0.6682 0.6812 5.1521 549.026 509.6906)" id="358424">
<path style="stroke: none; stroke-width: 0.1079; stroke-dasharray: none; stroke-linecap: butt; stroke-dashoffset: 0; stroke-linejoin: miter; stroke-miterlimit: 4; is-custom-font: none; font-file-url: none; fill: rgb(0,0,0); fill-rule: nonzero; opacity: 1;" vector-effect="non-scaling-stroke" transform=" translate(-104.9868, -163.1557)" d="m 191.57348 99.973864 c 0.29414 -0.0645 0.5887 -0.13116 0.88327 -0.20472 c 0.37676 -0.0676 0.75243 -0.14097 1.12693 -0.2196 c 0.7699 -0.16179 1.53496 -0.34678 2.29376 -0.55462 c 1.56376 -0.42821 3.2646 -0.88759 4.71295 -1.61176 c 0.75071 -0.45193 1.58015 -0.76904 2.28664 -1.29648 c 0.18767 -0.17042 0.27396 -0.51881 0.0636 -0.70541 c -0.453 -0.49184 -1.16488 -0.55655 -1.79155 -0.5695 c -1.32992 -0.10894 -2.66955 -0.0582 -3.99084 0.11541 c -2.52393 0.25671 -5.04786 0.53391 -7.54591 0.98477 c -1.4162 0.21788 -2.83349 0.4185 -4.24861 0.64177 c 0.56087 -0.45518 1.18862 -0.81866 1.82931 -1.14764 c 0.92328 -0.29877 1.79911 -0.72482 2.70513 -1.06782 c 0.70153 -0.0577 1.33898 -0.37104 1.98701 -0.61858 c 0.67316 -0.25702 1.35504 -0.47059 2.02097 -0.75361 c 2.24491 -0.95403 4.35444 -2.15074 6.23218 -3.71558 c 0.20601 -0.16394 0.34083 -0.39261 0.4789 -0.61372 c -0.42497 -0.33437 -0.97398 -0.46272 -1.5025 -0.34731 c -1.18215 0.25132 -2.4042 0.26749 -3.57234 0.58891 c -1.32894 0.35929 -2.67687 0.60985 -4.0069 0.95845 c -1.79242 0.48257 -3.58344 0.97679 -5.37586 1.44684 c -0.72482 0.17473 -1.4367 0.39584 -2.15181 0.60078 c -1.3763 0.40556 -2.83134 0.29015 -4.23244 0.5447 c -0.95457 0.20601 -1.88217 0.51341 -2.813 0.80248 c -1.50358 0.48537 -3.02332 0.92004 -4.51827 1.43022 c -0.837 0.25887 -1.64919 0.59108 -2.49157 0.82945 c -1.18647 0.29014 -2.35675 0.64285 -3.51302 1.03438 c -1.20156 0.33652 -2.35459 0.81759 -3.51732 1.26413 c -0.81758 0.34838 -1.7592 0.5997 -2.28772 1.37629 c 0.002 -0.12188 -0.32466 -0.19846 -0.39154 -0.19307 c 0.66119 -0.68922 1.54996 -1.2652 1.83364 -2.22947 c -0.18876 -0.34947 -0.56628 -0.5393 -0.92329 -0.67197 c -0.87259 -0.30848 -1.82176 -0.32466 -2.72348 -0.15424 c -0.71133 -0.00075 -1.45708 0.19641 -2.12139 0.44029 c -0.76387 0.28054 -1.53226 0.73819 -2.24976 1.1281 c -0.81617 0.44353 -1.60808 0.92998 -2.39934 1.41611 c -0.42228 0.2594 -0.84455 0.51881 -1.26694 0.7781 c -0.65082 0.399726 -1.32786 0.819296 -1.80309 1.430546 c -0.25638 0.32962 -0.43112 0.62343 -0.74155 0.91337 c -0.34935 0.32638 -0.72039 0.62925 -1.05605 0.9703 c -0.73453 0.73777 -1.54133 1.41298 -2.17016 2.24997 c -0.69569 0.72374 -1.28461 1.53809 -1.8897 2.33625 c -1.3008 1.74842 -2.60268 3.49684 -3.90886 5.24094 c -0.61912 0.87798 -1.39572 1.62761 -2.09573 2.43872 c -0.42497 0.5091 -0.93083 0.94162 -1.36875 1.43777 c -0.97182 1.00095 -1.86814 2.07739 -2.91115 3.00823 c -0.65902 0.58244 -1.40541 1.13577 -2.29526 1.27815 c -1.48956 0.2416 -3.00284 0.14237 -4.50425 0.15208 c -0.51234 -0.009 -1.03762 0.0269 -1.53809 -0.096 c -0.26641 -0.20169 -0.48429 -0.45732 -0.73129 -0.67952 c -1.52407 -1.38385 -3.29514 -2.5811 -5.32075 -3.06647 c -0.80388 -0.16319 -1.7276 -0.0407 -2.55198 -0.076 c -0.71145 -0.0305 -1.42203 -0.0798 -2.13088 -0.14788 c -0.31161 -0.0299 -0.60251 -0.0653 -0.90312 -0.1524 c -0.29489 -0.0855 -0.64403 -0.27505 -0.95456 -0.27505 c -0.41203 -0.0744 -0.6957 -0.41634 -0.96535 -0.7054 c -0.6148 -0.66334 -0.63314 -1.63516 -0.61696 -2.48618 c -0.0313 -0.35055 0.21356 -0.62236 0.35378 -0.91897 c 0.48214 -0.98368 0.66658 -2.07631 0.87366 -3.14305 c 0.12836 0.0183 0.25671 0.0367 0.38723 0.054 c 0.35917 -0.65688 0.58784 -1.36876 0.892 -2.04935 c 0.13267 -0.31927 0.11433 -0.67197 0.0615 -1.00634 c -0.0852 -0.64177 0.0464 -1.32668 -0.21032 -1.93717 c -0.21788 -0.0431 -0.32036 0.14021 -0.42929 0.28475 c 0.0809 -1.29756 0.25239 -2.6113 0.0291 -3.90562 c -0.19415 -1.246866 -0.8467 -2.393416 -1.72792 -3.284346 c -1.1595 -1.13361 -2.76014 -1.74518 -4.36727 -1.8196 c -0.91573 0.0528 -1.84117 0.20925 -2.67817 0.59862 c -1.49602 0.645 -2.66523 1.93717 -3.241199 3.45153 c -0.58137 1.548866 -0.327901 3.225026 -0.391535 4.836456 c -0.04315 -0.12728 -0.08521 -0.25455 -0.126201 -0.38075 c -0.104621 -0.013 -0.208168 -0.0259 -0.310634 -0.0377 c -0.104628 0.49292 -0.215724 0.98908 -0.212483 1.4971 c 0.01831 0.36349 -0.141299 0.71188 -0.08953 1.07644 c 0.02154 0.36566 0.247001 0.67306 0.336523 1.02253 c 0.13159 0.4886 0.333289 0.95563 0.569506 1.40218 c 0.231903 0.10786 0.292302 -0.11326 0.366723 -0.27936 c 0.19847 1.19725 0.2977 2.44519 0.84239 3.54968 c 0.28583 0.49832 0.1564 1.09263 0.14345 1.63732 c -0.054 0.91466 -0.55979 1.80882 -1.367661 2.25644 c -0.639615 0.1208 -1.263045 0.34623 -1.919912 0.35917 c -0.825353 0.0163 -1.641958 -0.10645 -2.468174 -0.13536 c -1.106753 -0.0387 -2.213182 -0.0415 -3.267842 0.29823 c -2.102198 0.68276 -3.886206 2.06121 -5.485774 3.5486 c -1.296483 0.0388 -2.592965 -0.0227 -3.889448 -0.042 c -1.092622 -0.0841 -2.238103 -0.0658 -3.253067 -0.53391 c -1.107727 -0.60726 -1.970608 -1.55966 -2.803286 -2.48833 c -1.480923 -1.71606 -3.064312 -3.34044 -4.472971 -5.11798 c -0.798167 -1.11635 -1.585551 -2.23918 -2.376161 -3.35984 c -1.473374 -2.07201 -2.866928 -4.21411 -4.579753 -6.0995 c -0.826314 -0.90959 -1.756183 -1.71995 -2.5496 -2.67031 c -0.340192 -0.407386 -0.668948 -0.827826 -1.054764 -1.194006 c -0.419795 -0.39843 -0.936233 -0.58816 -1.37619 -0.94486 c -0.434247 -0.35216 -0.886294 -0.68394 -1.346422 -1.00137 c -0.93224 -0.64307 -1.910855 -1.21893 -2.925931 -1.72124 c -1.199299 -0.59344 -2.472159 -1.08776 -3.805313 -1.26682 c -1.150764 -0.15456 -2.62467 -0.16276 -3.511278 0.71437 c 0.268566 0.93945 1.032222 1.61574 1.739786 2.24025 c 0.0075 0.0594 -1.068902 -0.49831 -1.590945 -0.7108 c -1.58877 -0.70756 -3.185096 -1.41512 -4.842917 -1.94688 c -1.534846 -0.62451 -3.171094 -0.95133 -4.698391 -1.59525 c -1.428072 -0.53607 -2.864774 -1.04733 -4.311178 -1.53054 c -1.409732 -0.47243 -2.794664 -1.0333 -4.243222 -1.37846 c -0.966436 -0.17473 -1.947962 -0.24808 -2.921939 -0.37535 c -0.980453 -0.14561 -1.898346 -0.53391 -2.844281 -0.81003 c -0.715113 -0.20817 -1.426991 -0.42173 -2.136716 -0.64717 c -1.402176 -0.49184 -2.843193 -0.85856 -4.262636 -1.29432 c -1.756505 -0.47102 -3.515487 -0.96039 -5.294325 -1.34092 c -0.602508 -0.12889 -1.209009 -0.24646 -1.822841 -0.30664 c -0.547392 -0.0537 -1.160788 -0.16934 -1.5990272 0.22499 c -0.0496 0.2675 0.186601 0.47351 0.3537822 0.64824 c 0.38884 0.40631 0.92307 0.73842 1.365076 1.08745 c 2.17134 1.71455 4.738312 2.88009 7.309591 3.84867 c 0.246355 0.0928 0.492928 0.18488 0.739493 0.27731 c 0.951218 0.35659 1.902218 0.71631 2.830038 1.13081 c 0.469838 0.20989 0.933748 0.43371 1.386973 0.67747 c 0.429722 0.23115 0.783714 0.51223 1.179128 0.79493 c -0.68491 -0.0323 -1.346091 -0.22758 -2.021298 -0.33221 c -1.41912 -0.21993 -2.819795 -0.54113 -4.231794 -0.80043 c -1.4518 -0.26663 -2.911794 -0.48915 -4.377183 -0.66679 c -0.04405 -0.005 -0.08791 -0.0106 -0.13192 -0.0158 c 0.06731 0.002 0.134614 0.002 0.201917 0.004 c -0.544053 0 -1.151514 -0.13235 -1.689203 -0.21918 c -0.545336 -0.088 -1.095106 -0.17431 -1.65037 -0.18327 c -0.825128 -0.0615 -1.6545722 -0.0852 -2.4818692 -0.0528 c -0.5544 0.0453 -1.190774 0.14022 -1.553186 0.61156 c -0.09815 0.22651 -0.02371 0.52636 0.185521 0.66766 c 0.688151 0.52636 1.493867 0.86073 2.219763 1.32884 c 0.285939 0.14604 0.53402 0.28616 0.8323622 0.40501 c 0.330047 0.13149 0.661505 0.2592 0.994366 0.38356 c 0.665497 0.24872 1.336389 0.48331 2.011806 0.70378 c 1.350841 0.44093 2.720352 0.82492 4.103438 1.15066 c 1.510474 0.35572 2.99367 0.66226 4.432953 1.26477 c 0.917892 0.398 1.743028 1.05595 2.751516 1.21019 c -1.476607 0.0313 -2.955369 -0.0183 -4.430896 -0.0884 c -3.273568 -0.0227 -6.605374 -0.1359 -9.802355 0.69139 c -0.7453092 0.14561 -1.4819962 0.459476 -2.0062012 1.022506 c -0.266413 0.25563 -0.149921 0.74317 0.158559 0.91466 c 0.769044 0.48311 1.6102462 0.84865 2.4800312 1.10729 c 0.862881 0.2566 1.760708 0.37751 2.635783 0.5612 c 0.657084 0.13785 1.323984 0.22446 1.99261 0.28217 c 1.17374 0.1015 2.363329 0.0828 3.544296 0.14939 c 0.678006 0.0382 1.356342 0.0726 2.032734 0.1345 c 0.593556 0.0543 1.268223 0.0681 1.829092 0.26328 c 1.265964 0.44061 2.578295 0.76495 3.915441 0.88478 c 1.461615 0.13094 2.955152 0.0134 4.349794 -0.44331 c -0.07324 0.0239 -0.17431 0.16373 -0.243661 0.21184 c -0.108395 0.0751 -0.226935 0.13558 -0.351088 0.18002 c -0.230927 0.0827 -0.477605 0.0869 -0.714468 0.13828 c -0.600565 0.13018 -1.218606 0.1744 -1.821648 0.29478 c -1.084 0.18768 -2.185252 0.25239 -3.266011 0.45841 c -1.006341 0.1208 -2.013756 0.247 -3.006065 0.45085 c -1.32884 0.273 -2.655849 0.56271 -3.958478 0.94378 c -1.282457 0.37514 -2.664905 0.80583 -3.818685 1.49548 c -0.478903 0.28626 -0.889093 0.74532 -1.104059 1.26035 c -0.209248 0.398 -0.171495 0.90063 0.07874 1.27168 c 0.206765 0.39563 0.626769 0.57575 1.016255 0.74251 c 0.475129 0.20342 0.911101 0.33857 1.428072 0.41375 c 1.220978 0.17764 2.467094 0.18217 3.689258 0.012 c 1.29249 -0.18002 2.550245 -0.55224 3.834646 -0.78274 c 1.119697 -0.20095 2.286106 -0.29403 3.40677 -0.0486 c 0.23546 0.0515 0.453773 0.16297 0.688797 0.19317 c 0.287559 0.0369 0.583095 0.0266 0.871293 0.003 c 0.586007 -0.0477 1.161771 -0.17344 1.744537 -0.24635 c 1.294321 -0.11972 3.232573 -0.39801 3.851688 -0.43683 c -1.128214 0.52312 -2.315754 0.89524 -3.473098 1.34286 c -0.983688 0.40339 -1.999732 0.72482 -2.971556 1.15949 c -0.886608 0.40233 -1.764595 0.82514 -2.654437 1.21883 c -0.906029 0.41526 -1.736553 0.97074 -2.582175 1.49386 c -0.597548 0.40232 -1.204807 0.80032 -1.72793 1.29972 c -0.455169 0.4131 -0.735607 0.99232 -0.861801 1.5877 c -0.349144 1.64757 2.00049 1.69222 3.056658 1.563 c 0.577047 -0.0706 1.122931 -0.269 1.691784 -0.3816 c 0.656334 -0.12998 1.289796 -0.34591 1.886046 -0.65839 c 0.588919 -0.30848 1.25765 -0.42496 1.832544 -0.76256 c 0.675207 -0.38076 1.439936 -0.54902 2.150734 -0.84347 c 0.317118 -0.11973 0.628832 -0.30525 0.980453 -0.27613 c 0.512341 -0.0248 1.016045 0.15532 1.528385 0.0658 c 0.758253 -0.14345 1.44317 -0.51234 2.169066 -0.7561 c 1.172442 -0.38938 2.132402 -1.19509 3.171094 -1.83146 c -0.176351 0.10808 -0.411375 0.79589 -0.291432 0.97333 c -0.118217 -0.16773 -2.590159 1.34555 -2.83349 1.4807 c -0.658818 0.34677 -1.303176 0.7245 -1.95389 1.08626 c -0.77606 0.43145 -1.613382 0.78167 -2.357941 1.2582 c -0.412995 0.26435 -0.817467 0.5421 -1.212453 0.83279 c -0.717709 0.52819 -1.422459 1.12261 -1.997255 1.81938 c -0.299529 0.36306 -0.581798 0.73151 -0.747253 1.17384 c -0.166002 0.44385 -0.43511 0.86246 -0.359717 1.36131 c 0.06784 0.44849 0.399623 0.8151 0.770777 1.07591 c 0.50122 0.35238 1.120665 0.7629 1.732553 0.8645 c 0.441586 0.0732 0.758261 -0.20505 1.164676 -0.28917 c 0.414076 -0.0857 0.843468 -0.0471 1.257221 -0.13677 c 0.325635 -0.0705 0.625696 -0.21906 0.925765 -0.35875 c 0.281301 -0.13094 0.602726 -0.3417 0.925013 -0.31776 c -0.490871 0.5735 -1.05962 1.14419 -1.466147 1.781 c -0.218523 0.34235 -0.387542 0.71262 -0.537036 1.0895 c -0.16481 0.41569 -0.270623 0.75329 -0.29381 1.20317 c -0.01103 0.21378 -0.01306 0.43155 0.04495 0.63757 c 0.152623 0.54232 0.804635 0.79568 1.265844 1.01744 c 0.560876 0.26966 1.165973 0.46165 1.788322 0.5145 c 0.509106 -0.0464 0.924368 -0.37104 1.363358 -0.60186 c 0.339757 -0.0669 0.685997 -0.0992 1.027908 -0.16179 c -0.243759 0.42497 -0.44978 0.87151 -0.724815 1.27706 c -0.174843 0.5227 -0.411811 1.08454 -0.455281 1.63592 c -0.06971 0.88543 -0.02806 1.91442 0.538004 2.64689 c 0.55332 0.71598 1.308347 0.91951 2.168751 0.95198 c -0.139033 0.0229 0.500575 0.0461 0.897182 -0.17862 c 0.3966 -0.22478 0.727517 -0.54846 1.03524 -0.88478 c 0.330054 -0.36068 0.64026 -0.74089 0.997817 -1.07418 c 0.357661 -0.33339 0.770124 -0.62203 1.239422 -0.75879 c -0.08661 0.0252 -0.228015 0.29553 -0.281623 0.3706 c -0.09761 0.13687 -0.190804 0.27688 -0.279463 0.41969 c -0.177326 0.28572 -0.3362 0.58277 -0.475662 0.88866 c -0.470596 1.03244 -0.696675 2.15386 -0.608549 3.28812 c 0.02619 0.33653 0.188215 0.6669 0.290351 0.98542 c 0.106136 0.33091 0.202247 0.70518 0.495194 0.92446 c 0.397568 0.29759 1.116568 0.51396 1.616505 0.49217 c 0.592153 -0.0259 1.231761 -0.11541 1.684775 -0.53607 c -0.200619 0.48322 -0.310634 0.9934 -0.423892 1.50142 c -0.03377 0.29608 0.01448 0.59085 0.05546 0.88359 c 0.0463 0.32984 0.09923 0.48603 0.311932 0.75438 c 0.09503 0.11994 0.19857 0.2374 0.330805 0.31452 c 0.132242 0.0771 0.298778 0.10883 0.440183 0.0501 c -0.04232 0.19706 0.07712 0.40049 0.241177 0.51763 c 0.184005 0.13126 0.411375 0.19695 0.630228 0.18735 c 0.06506 -0.003 0.747035 -0.12199 0.750382 -0.10603 c 0.04532 0.21141 0.09384 0.4239 0.145607 0.6353 c 0.09168 0.0906 0.183366 0.18336 0.27505 0.2772 c 0.06581 -0.0162 0.195223 -0.0474 0.261018 -0.0636 c 0.0015 0.0895 0.003 0.26965 0.0045 0.35918 c 0.139139 -0.008 0.278285 -0.0151 0.418496 -0.0205 c 0.368888 -0.30848 0.826217 -0.42173 1.28678 -0.50694 c -0.129436 0.48106 -0.09168 0.98261 -0.138065 1.47553 c -0.03992 0.32681 0.0075 0.65795 0.07226 0.98044 c 0.0755 0.29447 0.366719 0.44871 0.601863 0.60726 c 0.04638 0.0874 0.09383 0.17689 0.141292 0.2675 c 0.08952 -0.002 0.267494 -0.005 0.357016 -0.007 c 0.242686 -0.20062 0.482138 -0.41634 0.776593 -0.54038 c 0.02912 0.0291 0.08845 0.0874 0.117572 0.11649 c -0.07226 0.80464 -0.122959 1.63516 0.117565 2.41823 c 0.07444 0.22651 0.310642 0.32142 0.534988 0.31171 c 0.0076 0.0723 0.02154 0.21788 0.02912 0.29123 c 0.115419 -0.005 0.231903 -0.0108 0.348394 -0.014 c 0.180126 -0.16394 0.35809 -0.33005 0.538222 -0.494 c 0.229742 -0.0507 0.444385 -0.14777 0.643923 -0.27288 c 0.0086 1.0333 -0.168261 2.12161 0.252396 3.10098 c 0.11433 0.21896 0.383985 0.19415 0.589999 0.15748 c 0.003 0.0701 0.01186 0.21032 0.01508 0.28151 c 0.294456 -0.0173 0.552247 -0.14238 0.735606 -0.37319 c 0.01186 0.68491 0.08197 1.36766 0.349468 2.0062 c 0.116491 0.0594 0.232975 0.12081 0.349467 0.18336 c 0.05823 -0.041 0.17581 -0.12296 0.235137 -0.16395 c 0.01186 0.096 0.03557 0.28691 0.04743 0.38291 c 0.488605 -0.14022 0.788456 -0.56087 1.168119 -0.86505 c 0.03452 1.10342 -0.128347 2.25968 0.31603 3.30593 c 0.201699 0.0938 0.407713 0.18012 0.616968 0.25886 c 0.05823 0.26426 0.402311 0.18876 0.534981 0.0281 c 0.244847 -0.24376 0.434682 -0.55547 0.763656 -0.69677 c 0.0906 0.27827 0.186593 0.5544 0.278277 0.83268 c 0.18444 0.082 0.382905 0.1154 0.584604 0.12296 c 0.01298 0.0582 0.03775 0.17258 0.0496 0.22974 c 0.125114 -0.0528 0.251315 -0.10355 0.377509 -0.15208 c 0.227588 -0.27073 0.376429 -0.68707 0.791699 -0.686 c -0.01621 0.65903 0.09168 1.30944 0.170415 1.96198 c 0.07658 0.35379 0.244847 0.6806 0.390454 1.01174 c 0.140219 0.0464 0.280438 0.0938 0.421738 0.14129 c 0.04202 -0.0615 0.127274 -0.18551 0.169342 -0.247 c 0.02589 0.12404 0.05283 0.25024 0.08089 0.37752 c 0.265333 -0.13807 0.512334 -0.31173 0.688151 -0.5598 c -0.02589 0.47566 0.220032 0.892 0.42065 1.30403 c 0.156398 0.30417 0.517729 0.63746 0.877987 0.44331 c 0.05605 0.14022 0.113257 0.28151 0.171495 0.42389 c 0.02371 -0.0367 0.07226 -0.10894 0.096 -0.14454 c 0.112176 -0.0119 0.225426 -0.0227 0.338676 -0.0313 c 0.14238 -0.15639 0.289068 -0.30848 0.435763 -0.4584 c 0.09815 0.65255 0.176883 1.34394 0.581362 1.89187 c 0.229742 0.2621 0.530673 0.45625 0.854252 0.58568 c 0.05395 0.0884 0.107869 0.17905 0.161793 0.26965 c 0.168261 0.009 0.337603 0.0162 0.506945 0.0259 c 0.303085 -0.32142 0.582443 -0.6655 0.928676 -0.94054 c 0.190916 0.8672 0.347313 1.79695 0.918973 2.50991 c 0.231902 0.31495 0.750704 0.0755 0.915731 0.46057 c 0.142373 -0.0464 0.284753 -0.0928 0.428207 -0.13915 c 0.155317 -0.24699 0.303085 -0.49939 0.443304 -0.75609 c 0.13267 0.37535 0.245927 0.75609 0.354862 1.14008 c 0.224346 0.54361 0.566265 1.084 1.151949 1.28353 c 0.07121 -0.0658 0.143453 -0.13051 0.215717 -0.19415 c 0.06146 0.11973 0.122967 0.24485 0.19415 0.3635 c 0.157478 -0.0356 0.309561 -0.0863 0.465958 -0.12728 c 0.365646 -0.46596 0.746397 -0.92867 1.037611 -1.44533 c 0.119734 -0.0626 0.241613 -0.12296 0.363492 -0.18336 c 0.0496 0.12404 0.101394 0.25024 0.153164 0.37644 c 0.160712 -0.0615 0.328974 -0.10355 0.498316 -0.13807 c 0.36996 -0.45409 0.817579 -0.84562 1.12714 -1.34717 c 0.57274 -0.85749 1.048402 -1.78509 1.359044 -2.76878 c 0.126194 -0.39476 0.07009 -0.88877 0.396922 -1.19185 c 0.736687 -0.7011 1.304031 -1.56506 1.754892 -2.47216 c 0.230822 -0.439 0.242678 -0.96536 0.539295 -1.37415 c 0.308481 -0.42604 0.300932 -1.00741 0.666577 -1.39679 c 0.348387 -0.43252 0.646084 -0.91033 0.834839 -1.43454 c 0.179052 -0.52852 0.68599 -0.9276 0.663343 -1.52191 c -0.01944 -0.31064 0.302005 -0.47458 0.386139 -0.74855 c 0.128356 -0.41849 0.36888 -0.78845 0.520971 -1.19617 c 0.423884 -1.0991 0.780907 -2.22192 1.11743 -3.34906 c 0.218951 -0.93731 0.645003 -1.80343 1.118511 -2.63503 c 0.0086 0.85425 -0.06581 1.71282 0.106782 2.55737 c 0.488605 -0.18552 0.805715 -0.61481 1.107727 -1.01821 c 0.259938 -0.39152 0.739921 -0.54793 1.028982 -0.91141 c 0.227587 -0.29122 0.36996 -0.6353 0.52097 -0.96858 c 0.0053 0.44761 0.03339 0.89415 0.05395 1.34177 c 0.476741 -0.10354 0.895238 -0.3829 1.226365 -0.73452 c 0.279365 -0.31819 0.369968 -0.75503 0.648245 -1.07429 c 0.224346 -0.26103 0.4487 -0.53284 0.546852 -0.87044 c 0.191989 -0.58136 0.608331 -1.05056 0.822975 -1.62006 c 0.18552 -0.45625 0.475661 -0.86072 0.639608 -1.32668 c 0.427133 -1.07429 0.913577 -2.12917 1.244712 -3.23689 c 0.02589 0.054 0.07658 0.16287 0.102467 0.21798 c 0.32628 1.39259 0.563998 2.80406 0.874535 4.19998 c 0.376751 1.69373 0.694724 3.44862 0.485686 5.18614 c -0.208167 1.73051 -0.740566 3.2933 -1.306403 4.92717 c -0.478895 1.38287 -0.844864 2.87016 -1.118398 4.31096 c -0.0068 0.0701 -1.235003 4.72644 -1.359043 5.13738 c -0.423892 1.63733 -0.863962 3.27896 -1.085074 4.96051 c -0.218958 1.60819 -0.187681 3.2358 -0.12296 4.85371 c 0.146688 2.70298 0.353782 5.40272 0.587838 8.09923 c 0.234057 2.5509 0.361331 5.11474 0.716194 7.65269 c 0.165027 1.35041 0.282592 2.7073 0.459483 4.05662 l 0.210328 1.54888 c 0.01944 1.08507 0.564111 2.06445 0.737768 3.12148 c 0.210328 1.19833 0.687063 2.32439 1.143312 3.44397 c 0.984767 2.38804 2.513145 4.48915 3.986519 6.59028 c 0.691385 0.97829 1.190781 2.07415 1.677226 3.16354 c 0.210323 0.43144 0.189843 0.9276 0.362413 1.37306 c 0.13483 0.45625 0.39261 0.85964 0.56735 1.30079 c 0.0485 0.39046 -0.007 0.78631 -0.0227 1.17891 c -0.0723 0.75287 -0.0378 1.50898 -0.0442 2.26291 c -0.008 0.62991 0.0604 1.26198 0.22003 1.87246 c 0.20601 0.79709 0.22435 1.63625 0.47783 2.42254 c 0.1866 0.31172 0.47997 0.6353 0.87474 0.63314 c 0.1262 0.27397 0.30633 0.51666 0.51018 0.73993 c 0.19523 -0.002 0.39262 -0.007 0.59 -0.0151 c 0.0518 0.33221 -0.008 0.77336 0.31926 0.98154 c 0.23946 0.18875 0.58353 0.14776 0.82513 -0.0184 c 0.0561 0.13806 0.10463 0.28475 0.18553 0.41742 c 0.28906 0.2319 0.71403 0.19307 1.02251 0.0173 c 0.0215 -0.0938 0.0431 -0.1866 0.0669 -0.2772 c 0.12728 0.32358 0.20062 0.71511 0.49616 0.93623 c 0.35594 0.22758 0.79925 0.13266 1.19077 0.0787 c -0.35701 1.51544 -0.33436 3.13766 0.26966 4.58839 c 0.16502 1.0031 0.13051 2.03532 0.151 3.05136 c 0.0269 1.08184 -0.17258 2.15829 -0.0831 3.24013 c 0.12403 0.85857 0.3732 1.70959 0.32358 2.58757 c -0.055 0.49508 0.14345 0.95887 0.2923 1.42052 c 0.12511 0.44977 0.38721 0.87906 0.81327 1.10017 c 0.4336 0.12512 0.94593 0.0313 1.29432 -0.26102 c 0.22435 -0.1866 0.18876 -0.49723 0.20601 -0.75718 c 0.16071 0.27828 0.40017 0.59862 0.77121 0.51665 c 0.40447 -0.0194 0.55763 -0.42821 0.58567 -0.77336 c 0.2826 0.11541 0.63099 0.0841 0.83916 -0.15855 c 0.21895 -0.22004 0.0604 -0.54038 0.0313 -0.80141 c 0.20602 -0.0281 0.45733 0.005 0.60726 -0.17581 c 0.14992 -0.19307 0.16935 -0.44762 0.24161 -0.67196 c 0.23082 -0.01 0.52852 -0.0313 0.57705 -0.31388 c 0.29661 -1.02359 -0.0852 -2.07416 -0.12943 -3.10853 c -0.0323 -1.25658 -0.48861 -2.43872 -0.83161 -3.63274 c -0.29338 -1.01389 -0.67844 -1.99757 -0.99015 -3.00499 c -0.21465 -0.72698 -0.48754 -1.44856 -0.4994 -2.21653 c -0.15855 -0.63745 0.37104 -1.19833 0.22327 -1.84118 c -0.3376 -2.39558 0.27721 -4.77066 0.64285 -7.12309 c 0.47027 -2.56061 1.17675 -5.07375 1.58771 -7.64622 c 0.49399 -2.59296 0.61048 -5.24848 0.42173 -7.87812 c -0.0442 -1.40434 -0.33976 -2.79035 -0.34084 -4.19684 c -0.0227 -0.75934 0.013 -1.52083 -0.0356 -2.2791 l 0.1359 -1.81851 c 0.22328 -1.28246 0.53283 -2.54982 0.933 -3.78806 c 1.05811 -4.89686 2.10758 -9.80127 2.84103 -14.75961 c 0.38291 -2.56383 0.45841 -5.17298 0.16396 -7.74976 c 0 0 -0.0852 -0.80032 -0.13375 -1.2048 c -0.10032 -0.68168 -0.16503 -1.37306 -0.37859 -2.02993 l -0.96966 -4.66604 c -0.31539 -1.41469 -0.73422 -2.81052 -1.16415 -4.19393 c -0.48267 -1.55309 -1.12562 -3.04296 -1.2969 -4.67489 c -0.17592 -1.6755 0.11746 -3.34647 0.62245 -4.94367 c 0.21627 -0.68405 0.36533 -1.39151 0.53035 -2.08958 c 0.0899 -0.37977 0.17862 -0.75987 0.2676 -1.13986 c 0.0498 -0.21291 0.30093 -0.78932 0.23395 -0.99243 c 0.43576 1.32129 0.87368 2.65013 1.48632 3.90131 c 0.20385 0.63746 0.63638 1.17244 0.82082 1.81853 c 0.13698 0.50047 0.59215 0.82405 0.76041 1.3105 c 0.22975 0.6655 0.82406 1.12175 1.45396 1.38816 c 0.1111 -0.45948 0.11541 -0.93731 0.22327 -1.39679 c 0.14454 0.54901 0.39909 1.09478 0.88338 1.42483 c 0.6353 0.42605 0.81758 1.40651 1.62977 1.57585 c 0.0874 -0.83485 0.0712 -1.67184 0.0831 -2.50884 c 0.90063 1.04948 0.95456 2.5056 1.37953 3.76756 c 0.33653 1.2555 0.74855 2.49482 1.27707 3.6802 c 0.12188 0.17905 0.26965 0.35917 0.24592 0.59431 c -0.007 0.35594 0.1812 0.66658 0.35918 0.96104 c 0.25455 0.40016 0.32789 0.88229 0.57812 1.28569 c 0.18552 0.37104 0.45949 0.68599 0.67198 1.04085 c 0.14776 0.35379 0.20385 0.74532 0.41202 1.07537 c 0.28152 0.43468 0.2826 0.97398 0.51234 1.43238 c 0.28259 0.65364 0.65578 1.26521 1.07644 1.84118 c 0.19307 0.24916 0.3732 0.52097 0.64717 0.69247 c 0.18983 0.37319 0.21032 0.79709 0.2923 1.20157 c 0.46488 1.54779 1.24362 3.01145 2.36645 4.18282 c 0.15424 0.0194 0.30956 0.041 0.46703 0.0636 c 0.0215 -0.0787 0.0647 -0.23729 0.0863 -0.31603 c 0.12081 0.0626 0.25239 0.11433 0.36349 0.19954 c 0.29231 0.49724 0.63853 0.96211 0.93946 1.45504 c 0.0669 0.0162 0.20062 0.0486 0.26858 0.0647 c 0.21464 0.20708 0.32142 -0.0669 0.37751 -0.2524 c 0.11649 0.0572 0.23405 0.17582 0.37535 0.10355 c 0.5447 -0.12728 0.74747 -0.69786 1.04193 -1.10665 c 0.0755 -0.3883 0.2222 -0.75718 0.34731 -1.13146 c 0.21141 0.2017 0.33761 0.47136 0.47891 0.72483 c 0.151 0.0464 0.30308 0.0949 0.4584 0.14453 c 0.0227 -0.0604 0.068 -0.18012 0.0906 -0.24053 c 0.27504 0.0129 0.59863 0.01 0.78954 -0.22651 c 0.55548 -0.69677 0.73992 -1.59525 0.93838 -2.44303 c 0.37428 0.25563 0.61265 0.645 0.91574 0.97397 c 0.1661 -0.0108 0.33328 -0.0194 0.50263 -0.0281 c 0.0518 -0.0895 0.1057 -0.17797 0.16179 -0.26426 c 0.30201 -0.1111 0.58352 -0.28367 0.81219 -0.51233 c 0.19307 -0.23191 0.2923 -0.52421 0.43683 -0.78631 c 0.0431 -0.39908 0.16503 -0.78091 0.27181 -1.16597 c 0.15424 0.36349 0.46596 0.62882 0.87906 0.61157 c 0.0215 -0.0766 0.0636 -0.23082 0.0841 -0.30849 c 0.0863 0.0302 0.17473 0.0615 0.26533 0.0949 c 0.58461 -0.18875 0.73885 -0.80787 1.0139 -1.28354 c 0.01 -0.15531 0.0227 -0.30955 0.0366 -0.46271 c 0.22436 0.17905 0.45087 0.35486 0.68169 0.52959 c 0.0259 -0.12836 0.054 -0.25563 0.0831 -0.38183 c 0.0658 0.0874 0.13483 0.17581 0.20601 0.26534 c 0.11972 -0.0485 0.24161 -0.0949 0.36564 -0.13806 c 0.56411 -0.90818 0.56628 -2.0116 0.68924 -3.04059 c 0.35486 0.15101 0.5393 0.49185 0.73668 0.80033 c 0.13159 0.0442 0.26533 0.0895 0.40017 0.13591 c 0.0108 -0.0604 0.0313 -0.18014 0.041 -0.24054 c 0.16502 -0.001 0.33329 -0.003 0.50155 -0.008 c 0.14237 -0.30417 0.26749 -0.61588 0.39045 -0.9276 c 0.26641 0.22435 0.47135 0.50802 0.69677 0.77228 c 0.13592 0.1413 0.45087 0.24592 0.51018 -0.0237 c 0.25995 -0.0906 0.62452 -0.14238 0.7108 -0.45517 c 0.18984 -0.43036 0.2071 -0.90064 0.24485 -1.36228 c 0.0863 -0.56734 0.0453 -1.14116 0.0723 -1.71174 c 0.39477 0.27935 0.64285 0.77228 1.15303 0.86827 c 0.014 -0.0895 0.0421 -0.26964 0.0561 -0.35917 c 0.0723 0.0701 0.1456 0.14129 0.22218 0.21357 c 0.12189 -0.0906 0.24808 -0.17798 0.37428 -0.26643 c 0.23298 -0.61371 0.36025 -1.25656 0.36134 -1.91236 l 0.28366 0.28367 c 0.14346 0.0259 0.28908 0.0528 0.43684 0.082 c 0.0119 -0.0841 0.0356 -0.25132 0.0474 -0.33544 c 0.0723 0.0679 0.14777 0.13589 0.22435 0.206 c 0.11757 -0.096 0.24053 -0.18767 0.36349 -0.28043 c 0.35917 -0.98045 0.31495 -2.04287 0.31603 -3.06971 c 0.21464 0.11865 0.44654 0.21465 0.66226 0.33653 c 0.23622 0.17042 0.4034 0.53067 0.75394 0.42712 c 0.0356 -0.055 0.10679 -0.16502 0.14238 -0.22003 c 0.19091 -0.014 0.38075 -0.0917 0.4843 -0.26318 c 0.31278 -0.79708 0.2114 -1.66428 0.18444 -2.49912 c 0.30632 -0.0281 0.53498 0.16502 0.74099 0.36672 c 0.16826 0.19307 0.57598 0.20925 0.65148 -0.0798 c 0.2319 -0.18768 0.55333 -0.343 0.61804 -0.66335 c 0.18121 -0.78845 0.10247 -1.60927 0.003 -2.40313 c 0.002 0.011 0.78178 0.23741 0.86256 0.28195 c 0.26059 0.14378 0.47642 0.3114 0.79385 0.28454 c -0.001 -0.1152 -0.004 -0.23039 -0.005 -0.34558 c 0.001 0.11454 0.37708 0.02 0.42142 -0.008 c 0.1112 -0.0687 0.16437 -0.18972 0.20784 -0.30816 c 0.10484 -0.28507 0.0767 -0.60434 0.11573 -0.90085 c 0.36748 0.0953 0.74499 0.19146 1.12218 0.14874 c 0.37719 -0.0427 0.75966 -0.25562 0.89276 -0.61114 c 0.009 -0.0244 0.41537 -0.16545 0.47383 -0.20805 c 0.16653 -0.12135 0.30179 -0.28433 0.39099 -0.46995 c 0.20009 -0.41635 0.25574 -0.89341 0.22813 -1.35031 c -0.096 -0.39153 -0.1564 -0.79169 -0.26534 -1.17999 c 0.53067 0.19631 1.09262 0.37535 1.66644 0.32466 c 0.46434 -0.0812 1.42279 -0.24646 1.65814 -0.70907 c 0.10085 -0.19814 0.1139 -0.42746 0.15758 -0.64544 c 0.0601 -0.29963 0.22478 -0.52398 0.32499 -0.8014 c 0.10764 -0.29824 0.0987 -0.68265 0.0868 -0.9949 c -0.0528 -1.39043 -0.5366 -2.76144 -1.36798 -3.87726 c 0.13773 0.17711 0.48655 0.26911 0.6725 0.41159 c 0.25445 0.19491 0.46865 0.44461 0.68438 0.67985 c 0.57813 0.57921 0.98476 1.33531 1.70311 1.76567 c 0.67628 0.0593 1.38816 0.0895 2.00836 -0.23837 c 0.23654 -0.12501 0.54782 -0.21119 0.7423 -0.39207 c 0.22412 -0.2085 0.35604 -0.58773 0.44308 -0.87205 c 0.23913 -0.78091 0.3389 -1.51792 0.21033 -2.32213 c -0.0664 -0.41558 -0.17797 -0.86418 -0.34494 -1.26757 c -0.14874 -0.3595 -0.35744 -0.8946 -0.64521 -1.1636 c 0.30955 0.0162 0.62667 0.0259 0.92544 0.12836 c 0.2855 0.0979 0.53067 0.35194 0.807 0.48051 c 0.33502 0.15586 0.57124 0.15694 0.93527 0.0971 c 0.72158 -0.11864 1.41901 -0.38419 2.03543 -0.77788 c 0.17969 -0.11477 0.35691 -0.24473 0.47135 -0.42465 c 0.25422 -0.39973 0.12188 -0.91077 0.0826 -1.3448 c -0.0471 -0.51891 -0.22715 -1.00601 -0.47696 -1.46399 c -0.20429 -0.37459 -0.45097 -0.72363 -0.70994 -1.06199 c -0.12285 -0.1605 -0.24474 -0.32541 -0.37772 -0.47793 c -0.0889 -0.10193 -0.18186 -0.21496 -0.24916 -0.32768 c -0.0246 -0.0412 0.69149 0.18358 0.72568 0.19696 c 0.29554 0.11638 0.59485 0.22326 0.89729 0.32023 c 0.39186 0.12555 0.78911 0.23449 1.19024 0.3265 c 0.32725 0.075 0.73313 0.2539 1.06598 0.24128 c 0.47783 -0.0884 0.92329 -0.30525 1.33974 -0.55235 c 0.40663 -0.24118 0.98261 -0.54028 1.16467 -1.0044 c 0.1742 -0.44417 -0.093 -0.71069 -0.0979 -1.13836 c -0.006 -0.49994 -0.26242 -0.9373 -0.53703 -1.35127 c -0.2525 -0.38064 -0.57845 -0.70832 -0.8905 -1.03934 c -0.51729 -0.5488 -1.11322 -1.01562 -1.70527 -1.47996 c -0.30492 -0.23913 -0.60305 -0.49346 -0.91541 -0.72223 c -0.22208 -0.16266 -0.47717 -0.25649 -0.719 -0.39391 c -0.36143 -0.20525 -0.7218 -0.41245 -1.08108 -0.6216 c -0.69959 -0.40728 -1.39496 -0.82167 -2.08591 -1.24341 c -0.67941 -0.41461 -1.36195 -0.83041 -2.03284 -1.25667 c -0.47405 -0.30115 -0.84682 -0.89104 -1.08983 -1.40003 c 0.68924 0.49184 1.34287 1.03761 2.07956 1.46151 c 0.52204 0.34838 1.13469 0.51664 1.69663 0.78845 c 0.48862 0.22758 0.99124 0.45625 1.53486 0.51018 c 0.60725 0.10678 1.25441 -0.19523 1.83686 0.0938 c 0.61804 0.29662 1.2652 0.5242 1.89834 0.78738 c 0.94583 0.37988 1.81184 0.95036 2.75929 1.34545 c 0.85576 0.35691 1.7345 0.5901 2.62801 0.83937 c 0.33329 0.093 0.60067 0.30675 0.94443 0.28604 c 0.29834 -0.018 0.5873 -0.10236 0.88283 -0.13892 c 0.43889 -0.0545 0.88952 -0.1139 1.26865 -0.36026 c 0.29554 -0.28906 0.4994 -0.70863 0.42606 -1.12929 c -0.12296 -0.64285 -0.40772 -1.27275 -0.8974 -1.71822 c -0.73238 -0.68814 -1.56398 -1.2598 -2.39666 -1.81745 c -0.59647 -0.41741 -1.22206 -0.79708 -1.87462 -1.11851 c -1.28245 -0.63098 -2.52824 -1.33962 -3.85923 -1.86489 c -1.74087 -0.76797 -3.53567 -1.42161 -5.23878 -2.27154 c 0.75179 0.27396 3.03842 0.65255 4.30901 0.80679 c 0.64933 0.0884 1.28139 0.28044 1.93826 0.33221 c 0.8521 0.13698 1.64056 -0.37643 2.48618 -0.34084 c 0.8837 0.17312 1.75554 0.26814 2.63794 0.47588 c 0.92976 0.21885 1.85531 0.45722 2.79261 0.64285 c 1.83374 0.36306 4.11584 0.67272 5.82996 -0.28604 c 0.61373 -0.2222 1.0085 -0.93192 0.85749 -1.57046 c -0.18875 -0.67196 -0.64285 -1.25873 -1.24471 -1.60819 c -1.05056 -0.61588 -2.18957 -1.05272 -3.31563 -1.50465 c -1.28354 -0.42713 -2.61129 -0.70325 -3.91425 -1.06135 c -1.50454 -0.41353 -3.04716 -0.53617 -4.58169 -0.82017 c -1.63095 -0.30179 -3.244 -0.70087 -4.82739 -1.19488 c 1.66935 0.68546 3.55183 0.61589 5.33509 0.33933 c 1.78325 -0.27655 3.54214 -0.74909 5.34469 -0.83667 c 1.15055 -0.0559 2.30304 0.0463 3.45488 0.036 c 1.03265 -0.009 2.06229 -0.10872 3.0847 -0.25024 c 0.52313 -0.0723 1.04463 -0.15607 1.56527 -0.24419 c 0.42691 -0.0723 0.96944 -0.0808 1.35915 -0.26383 c 0.38927 -0.18282 0.81499 -0.36047 1.23252 -0.46833 c 0.40447 -0.1564 0.81111 -0.33005 1.1692 -0.58137 c 0.21032 -0.13159 0.24161 -0.39584 0.32898 -0.60833 c -0.27505 -0.35162 -0.59108 -0.67952 -0.98154 -0.90171 c -0.56303 -0.33436 -1.21774 -0.44762 -1.83901 -0.62775 c -1.56829 -0.42604 -3.19267 -0.5997 -4.81165 -0.67736 c -2.75044 -0.22867 -5.51275 -0.0787 -8.26426 -0.22759 c 1.07321 -0.26986 1.99499 -0.9099 3.03227 -1.26973 c 0.92006 -0.31926 1.85132 -0.50263 2.78604 -0.707556 z M 105.69509 223.60336 c -0.0809 -0.51772 -0.13266 -1.03977 -0.18013 -1.55966 c 0.0485 0.0259 0.1467 0.0787 0.19523 0.1057 c 0.12512 0.47891 0.16072 0.97938 -0.0152 1.45396 z m 2.04935 -1.96414 c -0.21357 -0.48105 -0.10787 -1.01712 -0.20062 -1.52082 c -0.15856 -0.96967 -0.6806 -1.82069 -1.06027 -2.71161 c -0.2923 -0.71835 -0.71296 -1.43455 -0.6353 -2.23918 c 0.0895 -1.10557 -0.0151 -2.21653 -0.24592 -3.29837 c -0.19307 -1.09155 -0.4487 -2.23379 -1.17136 -3.10854 c -0.18012 -0.24484 -0.45085 -0.39261 -0.71943 -0.51557 c -0.32682 -1.9458 -0.56734 -3.9067 -0.72482 -5.87192 c -0.19092 -1.09693 -0.24485 -2.23054 -0.64608 -3.27895 c -0.36457 -1.29432 -1.1498 -2.40852 -1.85089 -3.53674 c 0.0227 -0.19199 0.0464 -0.38075 0.069 -0.5695 l 0.28258 -2.57571 l -0.001 0.005 c 0.0205 -0.0744 0.0302 -0.15316 0.0259 -0.23298 c 0.0151 -0.87043 0.20278 -1.73116 0.14562 -2.60267 c 0.0474 -0.25239 0.13806 -0.49616 0.16718 -0.75071 c 0.28691 -2.83025 0.86396 -5.61844 1.38709 -8.40987 c 0.38398 -2.3287 0.97613 -4.62828 1.11419 -6.9915 c 0.0259 -0.83052 0.14777 -1.66213 0.0291 -2.4905 c -0.0917 -0.49939 0.23622 -0.92544 0.41419 -1.36551 c 0.50802 0.1359 1.04085 0.14669 1.5575 0.0442 c 0 0.0334 0.009 0.0701 0.0269 0.10894 c 0.0486 0.10031 0.0852 0.19954 0.11326 0.30201 c -0.002 0.0755 -0.007 0.15209 -0.0205 0.2265 c -0.002 0.0129 -0.002 0.0248 -0.002 0.0367 c -0.005 0.005 -0.009 0.008 -0.0119 0.0119 c -0.28691 1.08723 -0.26534 2.21761 -0.33868 3.33181 c -0.0518 3.06646 0.34192 6.1146 0.54901 9.17028 c 0.22111 2.43765 0.29446 4.88607 0.27181 7.33342 c 0.0281 0.75934 -0.014 1.52299 0.0593 2.27909 l 0.39477 2.91223 c -0.0162 0.0604 -0.0194 0.12512 0 0.19522 c 0.15855 1.08509 0.49184 2.14319 0.57274 3.24013 c 0.0334 1.45935 -0.32898 2.88418 -0.48861 4.32736 c -0.38183 2.72563 -0.0421 5.47822 0.24376 8.19522 c 0.37104 2.6771 0.54793 5.37469 0.72266 8.07011 c 0.0108 0.75934 0.0669 1.52407 -0.0291 2.28017 z" stroke-linecap="round"/>
</g>
</svg>