<?xml version="1.0"?>
<svg width="640" height="400" xmlns="http://www.w3.org/2000/svg" xmlns:svg="http://www.w3.org/2000/svg" enable-background="new 0 0 108 144" version="1.1" xml:space="preserve">
 <!-- Created with SVG-edit - https://github.com/SVG-Edit/svgedit-->
 <defs>undefined</defs>
 <g class="layer">
  <title>Layer 1</title>
  <g id="svg_1">
   <path d="m170.92,98.2c-1.62,2.79 -35.49,-19.77 -61.55,-34.96s-45.92,-29.74 -44.3,-32.53c1.62,-2.79 24.08,7.28 50.14,22.38c15.46,8.99 36.66,18.78 47.54,27.05c7.46,5.66 8.81,16.89 8.18,18.06z" fill="#080808" id="svg_2" stroke="#000000" stroke-width="0.1"/>
   <path d="m171.18,103.14c-2.43,3.5 -36.21,-9.35 -75.48,-28.76c-39.18,-19.41 -69.01,-38.01 -66.59,-41.6c2.43,-3.59 36.21,9.26 75.48,28.76c39.18,19.41 69.01,38.01 66.59,41.6z" fill="#000000" id="svg_3" stroke="#000000" stroke-width="0.14"/>
   <path d="m160.4,101.61c-1.8,3.86 -37.2,-3.41 -79.08,-16.35c-41.78,-12.94 -74.22,-26.6 -72.34,-30.46c1.8,-3.95 37.2,3.41 78.99,16.26c41.87,12.94 74.31,26.6 72.43,30.55z" fill="#000000" id="svg_4" stroke="#000000" stroke-width="0.14"/>
   <path d="m163.73,102.69c-1.17,4.22 -37.29,2.61 -80.6,-3.5c-43.4,-6.2 -77.55,-14.47 -76.38,-18.69c1.26,-4.13 37.38,-2.52 80.69,3.59c43.31,6.11 77.55,14.47 76.29,18.6z" fill="#000000" id="svg_5" stroke="#000000" stroke-width="0.14"/>
   <path d="m160.67,106.46c-0.72,4.31 -36.75,6.74 -80.51,5.48s-78.63,-5.84 -77.91,-10.06c0.72,-4.31 36.75,-6.65 80.51,-5.39s78.63,5.75 77.91,9.97z" fill="#000000" id="svg_6" stroke="#000000" stroke-width="0.14"/>
   <path d="m173.07,109.25c-0.27,4.31 -35.85,10.6 -79.53,14.11c-43.58,3.5 -78.81,2.88 -78.54,-1.44c0.27,-4.31 35.85,-10.69 79.53,-14.2c43.58,-3.5 78.72,-2.79 78.54,1.53z" fill="#000000" id="svg_7" stroke="#000000" stroke-width="0.14"/>
   <path d="m264.91,262.19c17.79,-9.88 67.13,-14.11 60.92,5.3c-1.71,5.57 -3.95,12.13 -6.56,18.33c-1.17,2.79 -3.41,7.73 -5.39,11.41c-2.43,4.49 -4.49,8.9 -6.47,13.48c-0.99,2.25 -2.43,4.13 -3.59,6.02c-4.58,7.91 -9.61,13.66 -15.82,24.08c-0.54,1.08 -3.59,2.79 -6.38,2.97c-4.04,0.27 -2.88,-2.16 -6.2,-1.17c-4.85,1.53 -10.51,2.61 -16.89,4.4c-3.77,1.08 -8,3.32 -12.04,3.23c-2.97,0 -5.66,-1.89 -8.72,-2.7c-1.08,-0.27 -2.07,1.98 -3.15,1.62c-1.53,-0.45 -0.45,-3.23 -1.98,-3.95c-1.26,-0.54 -3.15,-0.45 -4.58,-1.08c-0.99,-0.36 -1.35,-1.53 -2.52,-1.8c-3.5,-0.81 -7.55,-1.08 -10.42,-2.25c-2.97,-1.17 1.17,-5.57 -0.99,-7.19c-2.34,-1.8 -4.85,-2.79 -6.74,-4.76c-2.07,-2.25 1.71,-5.48 0.18,-7.82c-0.81,-1.26 -2.97,-2.88 -3.23,-4.22c-0.45,-1.53 0.99,-2.88 0.09,-4.13c-3.86,-5.21 -10.15,-6.11 -9.17,-8.54c0.54,-1.35 0.18,-1.44 6.11,-4.58c21.21,-11.23 46.1,-26.96 63.53,-36.66z" fill="#000000" id="svg_8"/>
   <path d="m290.07,292.56c3.32,-1.71 6.65,-3.15 10.15,-4.31c2.7,-0.9 5.12,-0.99 5.39,1.98c0.09,1.35 -0.99,3.68 -1.53,4.76c-1.62,3.41 -4.22,6.02 -7.01,8c-1.26,0.99 -4.04,2.79 -5.57,3.23c-0.9,0.18 -0.54,-1.08 -1.44,-0.72c-1.98,0.72 -3.59,2.61 -4.67,0.81c-0.54,-0.9 0.18,-2.88 -0.45,-3.59c-0.9,-0.81 -2.97,-0.36 -3.59,-1.08c-1.53,-1.71 0,-4.58 8.72,-9.17l0,0.09z" fill="#000000" id="svg_9"/>
   <path d="m273.98,285.73c3.06,-2.7 6.2,-5.12 9.61,-7.28c2.7,-1.62 5.21,-2.34 6.29,0.72c0.45,1.44 -0.09,4.13 -0.36,5.48c-0.81,4.04 -2.88,7.55 -5.3,10.33c-1.08,1.35 -3.59,4.04 -5.12,4.85c-0.9,0.45 -0.9,-0.99 -1.71,-0.36c-1.89,1.26 -3.15,3.68 -4.76,2.16c-0.81,-0.81 -0.45,-3.15 -1.44,-3.68c-1.08,-0.72 -3.15,0.27 -4.04,-0.27c-2.07,-1.44 -1.26,-4.85 6.83,-11.95z" fill="#000000" id="svg_10"/>
   <path d="m366,163.61s39.36,16.8 53.47,26.69c25.34,17.88 -12.94,69.01 -40.08,84.11c-10.15,5.57 -23.09,-5.93 -34.51,-3.95c-6.2,0.99 -11.5,4.76 -16.8,8c-3.23,1.98 -5.75,4.85 -8.99,6.74c-2.52,1.62 -5.66,6.65 -6.92,6.65c-5.39,-0.09 -12.31,-1.62 -17.79,-4.85c-1.08,-0.63 -1.71,-7.28 -7.01,-9.44c-1.8,-0.72 -9.44,4.22 -10.6,3.15c-2.52,-2.16 2.43,-6.65 -0.36,-8.36c-0.81,-0.54 -1.89,1.62 -3.41,2.52c-1.26,0.81 -3.06,0.36 -3.68,-0.18c-1.17,-0.99 0.09,-4.49 -0.36,-6.02c-0.27,-0.9 -2.25,-0.09 -2.7,-0.54c-1.8,-1.89 -1.35,-4.67 0.27,-7.73c4.13,-8 16.26,-18.69 18.33,-28.04c7.64,-34.6 81.14,-68.74 81.14,-68.74z" fill="#000000" id="svg_11"/>
   <path d="m141.8,73.13c6.92,0.9 12.04,1.35 17.34,3.41c10.87,4.22 23.9,9.08 58.68,23.36c18.24,7.46 38.55,22.2 55.98,30.91c13.93,7.01 34.06,18.06 50.77,24.26c19.77,7.46 35.94,9.88 40.26,8.9c-8.72,12.58 -84.56,87.07 -97.32,96.15c-0.72,-2.61 -5.84,-1.53 -6.47,-3.86c-0.9,-3.06 -0.81,-5.75 -1.53,-8.18c-0.99,-2.88 -6.11,0.18 -6.65,-0.36c-2.79,-2.61 -3.68,-3.77 -4.13,-3.95c-2.79,-1.35 -7.55,1.35 -8.9,0c-2.7,-2.61 -5.39,-4.85 -7.46,-7.82c-1.89,-2.7 -8.9,0.81 -11.68,-2.97c-1.62,-2.34 -4.58,0.09 -7.55,-0.18c-3.59,-0.27 -7.19,-3.15 -9.26,-5.75c-1.98,-2.61 -4.22,0.09 -5.93,-0.27c-3.32,-0.72 -4.76,-1.89 -6.92,-4.49c-1.26,-1.44 -3.32,-0.54 -5.3,-0.54c-2.61,-0.09 -5.21,-0.36 -6.74,-2.16c-1.26,-1.53 -6.38,-0.63 -9.97,-2.43c-2.7,-1.26 -1.71,-4.22 -4.04,-6.02c-1.35,-0.99 -7.73,-1.62 -11.14,-4.85c-2.25,-2.07 -7.46,-0.9 -9.61,-2.97c-1.71,-1.62 -1.08,-3.06 -2.7,-4.58c-1.8,-1.62 -6.2,-0.63 -8,-2.25c-1.44,-1.26 -2.07,-3.15 -3.5,-4.4c-2.61,-2.34 -7.37,-0.99 -9.97,-3.15c-1.53,-1.35 -0.99,-4.85 -2.43,-6.11c-2.52,-2.07 -6.11,-1.53 -8.54,-3.5c-1.89,-1.44 0.63,-6.02 -1.26,-7.37c-2.16,-1.71 -5.12,-2.25 -7.28,-3.77c-3.41,-2.43 0.54,-5.66 -1.8,-7.64c-2.7,-2.25 -13.75,0.27 -16.71,-2.61c-2.16,-2.07 0.09,-1.53 -1.89,-3.41c-3.5,-3.5 -9.61,-2.7 -12.58,-5.57c-1.44,-1.44 0.99,-2.25 -0.27,-3.5c-4.22,-4.04 -10.87,-3.06 -13.66,-5.84c-1.71,-1.62 1.71,-2.43 0.63,-3.59c-2.25,-2.25 -4.13,-1.44 -4.13,-1.44c-9.35,-1.08 -13.3,-4.4 -14.65,-5.3c0,0 1.44,-1.17 3.23,-2.07c2.7,-1.26 94.17,-55.53 103.07,-54.1z" fill="#000000" id="svg_12" stroke="#000000" stroke-width="0.1"/>
   <path d="m429.53,163.79c0,7.01 -5.3,8.27 -14.74,21.66c-0.09,0.18 -0.45,1.35 -0.99,2.16c-2.43,4.4 -8.63,16.62 -10.96,16.35c-0.9,0 -3.32,0.72 -3.23,-0.9c0.09,-1.53 0.72,-5.66 0.72,-5.66c-0.45,-0.18 -4.22,4.67 -5.03,4.13c0,-0.36 -0.09,-2.79 -0.09,-2.79s-2.16,1.26 -2.61,0.9c-0.63,-0.63 1.08,-3.77 0.45,-4.4c-0.45,-0.45 -1.08,0.45 -1.89,1.44c-1.17,1.35 -2.52,2.7 -3.06,2.16c-0.63,-0.54 1.35,-3.68 0.99,-3.95c-0.27,-0.27 -2.43,1.89 -5.03,3.5c-2.25,1.44 -4.49,2.16 -5.03,2.16c-0.45,0 -1.8,-0.45 -1.08,-1.26c0.54,-0.54 2.97,-2.88 2.79,-3.15c-0.18,-0.36 -5.84,4.04 -6.2,3.5c-0.54,-0.9 9.88,-8.27 9.44,-9.17c-0.09,-0.18 -4.31,3.15 -8.54,5.12c-3.77,1.8 -8,2.25 -8.09,2.07c-0.45,-0.81 3.06,-2.61 2.79,-3.5c-0.36,-0.99 -5.93,0.9 -6.2,-0.18c-0.36,-1.08 4.04,-3.32 3.95,-4.49c-0.09,-0.72 -5.66,0.9 -5.66,0.18c-0.18,-1.26 3.41,-3.68 2.07,-3.68c-2.88,0.18 -2.79,-1.17 0.99,-2.34c1.08,-0.36 -8.18,1.62 -7.82,0.27c0.54,-1.8 3.95,-2.16 4.22,-2.25c0.09,-0.09 -3.15,0 -2.34,-0.63c0.45,-0.36 1.89,-1.44 2.07,-2.25c0,-0.27 -1.89,-0.09 -1.71,-0.45c0.18,-0.45 1.44,-0.72 1.62,-1.17c0.18,-0.36 0.9,-0.63 0.72,-0.99c-0.18,-0.27 -1.44,0 -1.35,-0.36c0.81,-2.07 6.02,-2.7 6.92,-4.58c0.54,-1.08 -0.99,-2.16 -1.71,-3.32c-0.72,-1.08 -0.63,-2.16 -0.72,-2.25c-2.07,-2.16 20.49,-8.45 22.29,-8.99c3.77,-1.26 6.74,-2.7 9.79,-3.68c2.61,-0.81 4.4,-0.72 6.47,-1.44c2.16,-0.63 9.17,-0.36 12.31,-0.36c7.46,0 13.48,5.66 13.48,12.58z" fill="#000000" fill-opacity="0.97" id="svg_13"/>
   <path d="m431.69,174.04c-1.71,0.99 -0.36,-4.85 -2.97,-6.02c-2.07,-0.99 -5.66,-1.98 -9.44,-1.71c-2.7,0.09 -3.32,0.18 -6.11,0.45c-2.25,0.18 -6.38,1.62 -6.74,0.9c-0.36,-0.63 1.17,-1.35 3.77,-2.43c3.77,-1.71 4.85,-3.5 7.28,-5.48s2.07,-2.07 3.68,-3.32s4.85,-0.81 5.66,-0.72c0.72,0.18 2.79,0.54 4.04,1.98c1.71,1.89 2.07,4.58 2.7,6.56c0.9,3.5 -0.72,9.26 -1.89,9.79z" fill="#000000" fill-opacity="0.97" id="svg_14" opacity="0.98" stroke="#000000" stroke-width="0.07"/>
   <path d="m406.44,154.72a0.54,1.26 0 1 1 -0.99,0a0.54,1.26 0 1 1 0.99,0z" fill="#000000" fill-opacity="0.97" id="svg_15" opacity="0.98" stroke-width="0"/>
   <path d="m406.8,168.2c-0.45,-0.54 0.81,-0.18 1.44,-0.45c1.08,-0.36 1.8,-0.45 2.25,-0.54c0.27,-0.09 1.17,-0.36 2.43,-0.54c1.71,-0.18 3.86,-0.18 5.3,-0.27c2.97,-0.18 6.29,-0.09 8.72,0.81c1.17,0.36 2.07,0.54 2.7,1.53c0,0 -5.12,0.18 -8,0.27c-4.94,0 -8.99,-0.36 -14.83,-0.81z" fill="#000000" fill-opacity="0.97" id="svg_16" opacity="0.98" stroke="#000000" stroke-width="0.07"/>
   <path d="m394.4,155.62a2.07,2.07 0 1 1 -4.13,0a2.07,2.07 0 1 1 4.13,0z" fill="url(#linearGradient4245)" id="svg_17" opacity="0.98"/>
   <path d="m393.41,155.53a0.81,0.81 0 1 1 -1.62,0a0.81,0.81 0 1 1 1.62,0z" fill="#000000" fill-opacity="0.97" id="svg_18" opacity="0.98" stroke="#000000" stroke-width="0.06"/>
   <path d="m637.65,268.48c-2.25,3.68 -36.66,-7.46 -76.74,-24.98s-70.9,-34.69 -68.56,-38.37c2.25,-3.68 36.57,7.55 76.74,24.98s70.81,34.69 68.56,38.37z" fill="#000000" id="svg_19" stroke="#000000" stroke-width="0.14"/>
   <path d="m633.6,288.25c-1.26,1.62 -10.42,0.9 -22.91,-5.03c-13.3,-6.38 -32.8,-18.42 -52.12,-30.1c-37.47,-22.64 -65.6,-43.76 -62.81,-47.18c2.7,-3.32 35.22,12.4 72.7,35.05s67.93,43.94 65.15,47.27z" fill="#000000" id="svg_20" stroke="#000000" stroke-width="0.14"/>
   <path d="m618.78,308.47c-1.44,1.53 -11.32,0 -22.64,-8.36c-11.86,-8.72 -31,-19.41 -49.42,-32.62c-35.49,-25.52 -61.91,-48.79 -58.95,-51.94c2.97,-3.06 31.81,14.29 67.3,39.81c13.3,9.53 28.67,8.72 37.02,19.14c14.11,17.61 28.58,31.99 26.69,33.97z" fill="#000000" id="svg_21" stroke="#000000" stroke-width="0.14"/>
   <path d="m599.19,324.1c-1.62,1.26 -11.23,-1.62 -21.3,-11.41c-10.42,-10.33 -27.95,-23.63 -44.3,-39.36c-31.54,-30.28 -54.37,-57.06 -50.95,-59.76c3.41,-2.7 29.38,18.6 61.01,48.97c11.77,11.23 27.14,12.67 33.88,24.08c11.5,19.5 23.81,35.76 21.66,37.47z" fill="#000000" id="svg_22" stroke="#000000" stroke-width="0.14"/>
   <path d="m572.23,331.92c-1.89,0.9 -10.6,-4.04 -18.15,-15.82c-8,-12.4 -22.02,-29.29 -34.51,-48.16c-23.99,-36.66 -25.07,-47.27 -21.12,-49.06c3.86,-1.89 9.26,4.13 33.25,40.71c8.99,13.57 23.72,18.42 27.77,31.09c6.83,21.48 15.19,40.08 12.76,41.25z" fill="#000000" id="svg_23" stroke="#000000" stroke-width="0.14"/>
   <path d="m566.12,225.71c8.54,3.95 9.35,3.23 16,20.22c3.5,8.99 -33.16,66.05 -32.62,70.81c1.08,8.54 -17.34,-7.82 -18.06,-5.48c-1.08,3.86 -6.65,2.25 -11.05,0.27c-4.13,-1.8 -6.11,-4.58 -7.1,-3.5c-2.16,2.52 -9.17,0.54 -13.66,-1.98c-2.52,-1.53 -3.86,-4.04 -4.22,-3.86c-2.25,0.63 0.45,5.03 -13.21,0.81c-3.5,-1.17 -4.85,-5.3 -6.56,-5.12c-2.7,0.18 -7.19,2.34 -10.24,1.98c-2.16,-0.27 -2.07,-2.97 -3.95,-2.7c-2.25,0.36 -4.04,2.16 -6.2,3.15c-2.34,0.99 -5.12,1.08 -7.64,1.08c-2.7,0 -2.34,-2.7 -4.76,-2.88c-1.53,-0.09 -2.97,1.89 -5.48,2.43c-2.61,0.63 -4.76,-4.13 -7.55,-3.68c-1.17,0.18 -2.16,1.08 -3.41,1.17c-3.5,0.27 -7.37,-0.72 -10.87,-1.62c-4.13,-0.99 -6.2,-3.41 -11.41,-2.43c-1.98,0.36 -2.61,-1.8 -4.67,-2.16c-2.25,-0.36 -5.21,1.26 -7.55,0.81c-2.88,-0.63 -3.06,-4.49 -5.93,-3.95c-2.25,0.45 -4.76,0.36 -6.74,-0.54c-1.8,-0.81 -3.06,-2.34 -4.67,-3.68c-1.35,-1.17 -3.5,0.27 -5.3,-0.18c-1.89,-0.36 -3.06,-3.23 -4.85,-3.59c-3.15,-0.63 -7.01,1.17 -9.08,0.63c-1.89,-0.45 -1.08,-2.97 -2.79,-3.5c-1.26,-0.36 -4.76,0.27 -6.02,-0.18c-1.08,-0.36 0.18,-1.71 -0.81,-2.16c-4.31,-1.62 -8.54,3.15 -7.55,0.27c2.52,-7.01 22.82,-18.06 29.74,-24.08c7.28,-6.29 13.66,-12.13 22.38,-20.58c8.45,-8.18 14.56,-23.45 21.21,-34.06c1.62,-2.79 0,-6.02 2.16,-7.1c4.58,-2.34 10.42,-0.09 17.16,0.99c3.68,0.54 7.46,1.8 11.05,1.98c4.13,0.18 6.56,0.72 14.74,3.06c10.33,2.97 21.3,3.77 29.92,5.3c14.29,2.61 28.49,2.88 32.35,4.58c2.16,0.9 19.41,6.56 25.25,9.35c3.86,1.8 20.13,9.35 21.93,10.15l0.09,0z" fill="#000000" id="svg_24"/>
   <path d="m624.17,243.59c-0.72,1.89 -21.75,2.61 -41.43,-1.98c-19.59,-4.49 -13.48,-10.06 -12.76,-11.95c1.08,-2.61 7.1,2.34 15.37,5.21c18.96,6.74 39.45,6.92 38.73,8.72l0.09,0z" fill="#000000" id="svg_25" stroke="#000000" stroke-width="0.07"/>
   <path d="m292.32,296.16c-1.62,1.44 -3.32,2.43 -4.94,3.68c-1.08,0.9 -1.44,1.8 -2.43,2.7c-0.27,0.27 0.18,0.72 0.36,0.63c0.45,-0.36 0.63,-0.72 0.9,-1.08c0.45,-0.63 1.08,-1.08 1.53,-1.53c1.35,-1.17 2.97,-1.98 5.12,-4.13c0.45,-0.45 0,-0.72 -0.54,-0.27z" fill="#000000" id="svg_26"/>
   <path d="m277.4,288.97c-1.35,1.89 -2.97,3.5 -4.31,5.21c-0.9,1.26 -1.08,2.34 -1.89,3.59c-0.18,0.27 0.36,0.63 0.54,0.45c0.45,-0.45 0.54,-0.9 0.72,-1.35c0.27,-0.81 0.81,-1.35 1.17,-1.98c1.17,-1.71 2.7,-2.97 4.31,-5.75c0.36,-0.63 -0.18,-0.81 -0.54,-0.18z" fill="#000000" id="svg_27"/>
   <path d="m296.72,299.12c-1.62,1.17 -2.61,2.16 -4.04,3.41c-0.99,0.9 -2.34,2.25 -3.32,3.15c-0.27,0.18 0.27,0.09 0.45,0c2.52,-2.25 5.12,-4.4 7.46,-6.2c0.45,-0.54 0.09,-0.72 -0.54,-0.36z" fill="#000000" id="svg_28" opacity="0.83"/>
   <path d="m282.79,290.95c-1.44,1.62 -2.25,2.97 -3.32,4.67c-0.9,1.26 -1.98,2.97 -2.79,4.22c-0.18,0.36 0.36,0.09 0.45,-0.09c2.16,-3.06 4.31,-6.11 6.29,-8.63c0.36,-0.63 -0.09,-0.72 -0.63,-0.18z" fill="#000000" id="svg_29" opacity="0.83"/>
   <path d="m318.29,195.87a0.09,0.09 0 1 1 -0.18,0a0.09,0.09 0 1 1 0.18,0z" fill="#0f0f0f" id="svg_30" stroke="#000000" stroke-width="0.1"/>
  </g>
 </g>
</svg>